<?xml version="1.0" encoding="UTF-8"?>
<svg xmlns="http://www.w3.org/2000/svg" xmlns:xlink="http://www.w3.org/1999/xlink" viewBox="0 0 60 60" width="60px" height="60px">
<g id="surface115819852">
<path style=" stroke:none;fill-rule:nonzero;fill:rgb(20.392157%,59.607846%,85.882354%);fill-opacity:1;" d="M 30 10 C 41.046875 10 50 18.953125 50 30 C 50 38.878906 44.210938 46.402344 36.199219 49.015625 C 36.203125 49.007812 36.207031 48.996094 36.207031 48.996094 C 36.207031 48.996094 34.855469 48.363281 34.886719 47.234375 C 34.917969 45.992188 34.886719 43.09375 34.886719 42.027344 C 34.886719 40.199219 33.726562 38.90625 33.726562 38.90625 C 33.726562 38.90625 42.796875 39.007812 42.796875 29.328125 C 42.796875 25.597656 40.847656 23.652344 40.847656 23.652344 C 40.847656 23.652344 41.871094 19.667969 40.492188 17.976562 C 38.945312 17.808594 36.175781 19.453125 34.992188 20.222656 C 34.992188 20.222656 33.117188 19.457031 30 19.457031 C 26.878906 19.457031 25.007812 20.222656 25.007812 20.222656 C 23.824219 19.457031 21.054688 17.808594 19.507812 17.976562 C 18.125 19.667969 19.152344 23.652344 19.152344 23.652344 C 19.152344 23.652344 17.199219 25.597656 17.199219 29.328125 C 17.199219 39.007812 26.269531 38.90625 26.269531 38.90625 C 26.269531 38.90625 25.355469 39.9375 25.15625 41.457031 C 24.523438 41.671875 23.59375 41.9375 22.839844 41.9375 C 20.871094 41.9375 19.375 40.023438 18.824219 39.136719 C 18.285156 38.265625 17.175781 37.53125 16.140625 37.53125 C 15.460938 37.53125 15.128906 37.875 15.128906 38.261719 C 15.128906 38.652344 16.082031 38.921875 16.714844 39.644531 C 18.042969 41.167969 18.015625 44.589844 22.75 44.589844 C 23.265625 44.589844 24.3125 44.460938 25.101562 44.355469 C 25.097656 45.433594 25.097656 46.570312 25.113281 47.234375 C 25.140625 48.363281 23.792969 48.996094 23.792969 48.996094 C 23.792969 48.996094 23.796875 49.007812 23.796875 49.015625 C 15.789062 46.402344 10 38.878906 10 30 C 10 18.953125 18.953125 10 30 10 Z M 30 10 "/>
</g>
</svg>
